<svg width="80" height="80" viewBox="0 0 80 80" fill="none" xmlns="http://www.w3.org/2000/svg">
<path fill-rule="evenodd" clip-rule="evenodd" d="M40.0001 73.3333C58.4094 73.3333 73.3334 58.4093 73.3334 40C73.3334 21.5905 58.4094 6.66666 40.0001 6.66666C21.5906 6.66666 6.66675 21.5905 6.66675 40C6.66675 58.4093 21.5906 73.3333 40.0001 73.3333ZM51.7851 28.2149C53.0871 26.9131 55.1974 26.9131 56.4994 28.2149C57.8011 29.5166 57.8011 31.6272 56.4994 32.9289L37.6554 51.7727L37.6431 51.785C37.3064 52.1217 36.9157 52.3713 36.4987 52.534C35.9081 52.764 35.2651 52.8197 34.6494 52.7003C34.0191 52.5783 33.4171 52.2733 32.929 51.785L32.9164 51.7723L23.501 42.357C22.1992 41.0553 22.1992 38.9447 23.501 37.643C24.8027 36.3413 26.9133 36.3413 28.215 37.643L35.2861 44.714L51.7851 28.2149Z" fill="#2666CF"/>
</svg>
