<svg width="26" height="45" viewBox="0 0 26 45" fill="none" xmlns="http://www.w3.org/2000/svg">
<path d="M6.49987 44.1224C10.0878 44.1224 12.9997 40.8279 12.9997 36.7687V29.4149H6.49987C2.91194 29.4149 0 32.7094 0 36.7687C0 40.8279 2.91194 44.1224 6.49987 44.1224Z" fill="#0ACF83"/>
<path d="M0 22.0613C0 18.002 2.91194 14.7075 6.49987 14.7075H12.9997V29.415H6.49987C2.91194 29.415 0 26.1205 0 22.0613Z" fill="#A259FF"/>
<path d="M0 7.35374C0 3.29448 2.91194 0 6.49987 0H12.9997V14.7075H6.49987C2.91194 14.7075 0 11.413 0 7.35374Z" fill="#F24E1E"/>
<path d="M13.0005 0H19.5004C23.0883 0 26.0002 3.29448 26.0002 7.35374C26.0002 11.413 23.0883 14.7075 19.5004 14.7075H13.0005V0Z" fill="#FF7262"/>
<path d="M26.0002 22.0613C26.0002 26.1205 23.0883 29.415 19.5004 29.415C15.9124 29.415 13.0005 26.1205 13.0005 22.0613C13.0005 18.002 15.9124 14.7075 19.5004 14.7075C23.0883 14.7075 26.0002 18.002 26.0002 22.0613Z" fill="#1ABCFE"/>
</svg>
