<svg width="72" height="50" viewBox="0 0 72 50" fill="none" xmlns="http://www.w3.org/2000/svg">
<path d="M36.4517 0.36615C29.3815 0.36615 24.9627 3.92784 23.1951 11.0512C25.8464 7.48953 28.9396 6.1539 32.4748 7.04432C34.4917 7.55235 35.9334 9.0266 37.5291 10.6585C40.1285 13.3169 43.1371 16.3938 49.7084 16.3938C56.7786 16.3938 61.1975 12.8321 62.965 5.70868C60.3137 9.27037 57.2205 10.606 53.6854 9.71558C51.6684 9.20755 50.2268 7.73331 48.631 6.10136C46.0316 3.44295 43.023 0.36615 36.4517 0.36615ZM23.1951 16.3938C16.1249 16.3938 11.706 19.9554 9.93848 27.0788C12.5898 23.5171 15.683 22.1815 19.2181 23.0719C21.2351 23.58 22.6767 25.0542 24.2724 26.6861C26.8719 29.3445 29.8805 32.4214 36.4517 32.4214C43.5219 32.4214 47.9408 28.8597 49.7084 21.7363C47.057 25.298 43.9638 26.6336 40.4287 25.7432C38.4118 25.2352 36.9701 23.7609 35.3744 22.129C32.7749 19.4706 29.7664 16.3938 23.1951 16.3938Z" fill="url(#paint0_linear_136_107)"/>
<path d="M5.25729 44.3079H3.5363V47.648C3.5363 48.5387 4.11922 48.5248 5.25729 48.4691V49.8191C2.95338 50.0974 2.03737 49.4572 2.03737 47.648V44.3079H0.760498V42.8605H2.03737V40.9913L3.5363 40.5459V42.8605H5.25729V44.3079ZM11.8177 42.8605H13.3166V49.8191H11.8177V48.817C11.2903 49.5546 10.4714 50 9.38885 50C7.50131 50 5.93298 48.3995 5.93298 46.3398C5.93298 44.2662 7.50131 42.6796 9.38885 42.6796C10.4714 42.6796 11.2903 43.125 11.8177 43.8486V42.8605ZM9.62479 48.5665C10.8739 48.5665 11.8177 47.6341 11.8177 46.3398C11.8177 45.0455 10.8739 44.1131 9.62479 44.1131C8.37568 44.1131 7.43191 45.0455 7.43191 46.3398C7.43191 47.6341 8.37568 48.5665 9.62479 48.5665ZM15.8148 41.8168C15.2874 41.8168 14.8572 41.3714 14.8572 40.8565C14.8572 40.3276 15.2874 39.8962 15.8148 39.8962C16.3422 39.8962 16.7725 40.3276 16.7725 40.8565C16.7725 41.3714 16.3422 41.8168 15.8148 41.8168ZM15.0654 49.8191V42.8605H16.5643V49.8191H15.0654ZM18.2992 49.8191V39.6596H19.7981V49.8191H18.2992ZM29.5273 42.8605H31.1095L28.9305 49.8191H27.4593L26.0159 45.129L24.5586 49.8191H23.0874L20.9084 42.8605H22.4906L23.8369 47.6619L25.2942 42.8605H26.7237L28.1671 47.6619L29.5273 42.8605ZM32.9693 41.8168C32.4419 41.8168 32.0116 41.3714 32.0116 40.8565C32.0116 40.3276 32.4419 39.8962 32.9693 39.8962C33.4967 39.8962 33.9269 40.3276 33.9269 40.8565C33.9269 41.3714 33.4967 41.8168 32.9693 41.8168ZM32.2198 49.8191V42.8605H33.7187V49.8191H32.2198ZM39.1038 42.6796C40.6582 42.6796 41.7685 43.7373 41.7685 45.5465V49.8191H40.2696V45.6996C40.2696 44.6419 39.6589 44.0852 38.7152 44.0852C37.7298 44.0852 36.9525 44.6698 36.9525 46.0893V49.8191H35.4536V42.8605H36.9525V43.7512C37.4105 43.0275 38.16 42.6796 39.1038 42.6796ZM48.8746 40.0771H50.3735V49.8191H48.8746V48.817C48.3472 49.5546 47.5283 50 46.4458 50C44.5582 50 42.9899 48.3995 42.9899 46.3398C42.9899 44.2662 44.5582 42.6796 46.4458 42.6796C47.5283 42.6796 48.3472 43.125 48.8746 43.8486V40.0771ZM46.6817 48.5665C47.9308 48.5665 48.8746 47.6341 48.8746 46.3398C48.8746 45.0455 47.9308 44.1131 46.6817 44.1131C45.4326 44.1131 44.4888 45.0455 44.4888 46.3398C44.4888 47.6341 45.4326 48.5665 46.6817 48.5665ZM55.3977 50C53.302 50 51.7337 48.3995 51.7337 46.3398C51.7337 44.2662 53.302 42.6796 55.3977 42.6796C56.7579 42.6796 57.9376 43.3894 58.4927 44.4749L57.202 45.2264C56.8967 44.5723 56.2166 44.1548 55.3838 44.1548C54.1625 44.1548 53.2326 45.0873 53.2326 46.3398C53.2326 47.5923 54.1625 48.5248 55.3838 48.5248C56.2166 48.5248 56.8967 48.0934 57.2297 47.4532L58.5205 48.1908C57.9376 49.2902 56.7579 50 55.3977 50ZM60.991 44.7811C60.991 46.0475 64.7244 45.2821 64.7244 47.8568C64.7244 49.2485 63.5169 50 62.018 50C60.6301 50 59.6308 49.3737 59.1867 48.3717L60.4774 47.6202C60.6995 48.2464 61.2547 48.6222 62.018 48.6222C62.6842 48.6222 63.1977 48.3995 63.1977 47.8428C63.1977 46.6042 59.4643 47.3001 59.4643 44.8089C59.4643 43.5007 60.5885 42.6796 62.0041 42.6796C63.1422 42.6796 64.086 43.2085 64.5717 44.127L63.3087 44.8368C63.0589 44.294 62.5732 44.0435 62.0041 44.0435C61.4628 44.0435 60.991 44.2801 60.991 44.7811ZM67.3892 44.7811C67.3892 46.0475 71.1226 45.2821 71.1226 47.8568C71.1226 49.2485 69.9152 50 68.4162 50C67.0283 50 66.029 49.3737 65.5849 48.3717L66.8757 47.6202C67.0977 48.2464 67.6529 48.6222 68.4162 48.6222C69.0824 48.6222 69.5959 48.3995 69.5959 47.8428C69.5959 46.6042 65.8625 47.3001 65.8625 44.8089C65.8625 43.5007 66.9867 42.6796 68.4023 42.6796C69.5404 42.6796 70.4842 43.2085 70.97 44.127L69.707 44.8368C69.4571 44.294 68.9714 44.0435 68.4023 44.0435C67.8611 44.0435 67.3892 44.2801 67.3892 44.7811Z" fill="#2D3748"/>
<defs>
<linearGradient id="paint0_linear_136_107" x1="8.46552" y1="10.6238" x2="54.4332" y2="36.9299" gradientUnits="userSpaceOnUse">
<stop stop-color="#2298BD"/>
<stop offset="1" stop-color="#0ED7B5"/>
</linearGradient>
</defs>
</svg>
